<svg width="177" height="80" viewBox="0 0 177 80" fill="none" xmlns="http://www.w3.org/2000/svg">
<path d="M42.5738 69.0954C39.9442 66.9306 36.8479 65.6336 33.6665 64.5317C31.3296 63.7226 28.9626 62.9951 26.6665 62.0759C25.0057 61.4105 24.9099 60.7948 26.2123 59.6646C27.5786 58.4775 27.7667 57.4803 26.8369 56.1744C26.5974 55.839 26.2939 55.5462 26.0012 55.2517C23.8009 53.0231 22.0159 50.4892 20.5627 47.7265C18.4157 43.649 17.1665 39.3178 16.7975 34.7133C16.5916 32.1369 16.6555 29.5889 17.0902 27.0462C17.2819 25.9248 17.4859 24.8051 17.6811 23.6979C17.4398 23.6181 17.3422 23.7512 17.2304 23.8345C17.0157 23.9978 16.7992 24.1557 16.6023 24.3367C13.4865 27.2112 11.0272 30.5541 9.30249 34.4382C7.74459 37.9497 6.96031 41.6316 6.76691 45.4482C6.67819 47.2102 6.82014 48.9651 7.05436 50.7146C7.51392 54.1462 8.56613 57.3969 10.1719 60.4488C11.9907 63.9035 14.4056 66.8987 17.4149 69.413C20.403 71.9078 23.7406 73.7673 27.4384 74.9544C31.4503 76.2426 35.5633 76.6311 39.7615 76.2142C41.9901 75.9924 44.1513 75.508 46.2716 74.8C46.7543 74.6385 46.804 74.4362 46.591 73.9997C45.6382 72.0444 44.2276 70.4599 42.5721 69.0971" fill="#F79320"/>
<path d="M64.095 34.7115C62.7571 31.4893 60.8337 28.6378 58.4808 26.0881C56.0535 23.4567 53.195 21.3505 49.978 19.7837C45.7869 17.7396 41.3581 16.6164 36.3384 16.7193C34.2659 16.5792 31.9344 17.0032 29.6046 17.477C29.0688 17.587 28.7671 17.8425 28.6003 18.3837C27.6563 21.4285 27.4026 24.5 28.029 27.6442C28.6571 30.7901 30.0163 33.5795 32.1313 35.9696C34.2748 38.3951 36.1343 39.4757 39.7807 38.0119C42.8982 36.7609 46.1454 36.6616 49.2825 38.0775C52.1995 39.3941 54.9321 39.2397 57.6557 37.5115C59.4266 36.3883 61.4121 35.7318 63.5343 35.604C64.3806 35.5526 64.425 35.4976 64.0985 34.7115" fill="#F79320"/>
<path d="M8.21796 14.7782C8.76624 15.0213 9.2329 14.8367 9.55584 14.2494C11.3054 11.0697 13.8693 8.76303 17.2229 7.38966C19.8011 6.33213 22.4804 5.93822 25.268 6.41908C26.4834 6.62845 27.6438 6.98333 28.7972 7.39676C29.5318 7.65937 30.0818 7.27255 30.0623 6.36052C30.0499 6.09259 29.7536 5.84595 29.3366 5.67206C26.5011 4.49033 23.5557 4.27918 20.5446 4.65535C16.2381 5.19476 12.7107 7.17851 9.90717 10.4558C9.12999 11.3643 8.41136 12.3366 7.92164 13.4421C7.70871 13.9247 7.6058 14.5085 8.21618 14.7799" fill="#F79320"/>
<path d="M28.7947 10.4682C28.9562 10.1187 28.7894 9.85073 28.5818 9.60054C28.3884 9.3681 28.1062 9.25631 27.8348 9.14807C26.2981 8.52882 24.6852 8.28395 22.9286 8.17749C22.3147 8.23959 21.5765 8.26266 20.8597 8.39219C17.5948 8.98128 14.8268 10.4593 12.7242 13.0712C12.128 13.8129 11.546 14.5741 11.168 15.4613C10.9445 15.9865 10.9356 16.4727 11.5282 16.7761C12.0712 17.0547 12.4651 16.8382 12.7667 16.3645C12.8838 16.1782 13.0116 15.9989 13.1145 15.8038C13.8349 14.4375 14.8428 13.2841 16.0689 12.3916C19.497 9.89154 23.2338 9.33084 27.2315 10.8887C27.4887 10.9899 27.7425 11.0396 28.0175 11.0342C28.415 11.0289 28.6421 10.8089 28.7965 10.47" fill="#F79320"/>
<path d="M26.9195 13.0837C26.7527 12.9489 26.5505 12.8371 26.3464 12.7661C25.2782 12.3988 24.1941 12.0972 23.0869 12.1593C21.2486 12.0954 19.6002 12.6171 18.0814 13.5184C16.4809 14.466 15.2938 15.8127 14.5468 17.5303C14.3481 17.9863 14.3587 18.4583 14.7828 18.7138C15.2353 18.9853 15.7374 18.8913 16.0887 18.4317C16.2076 18.2773 16.2928 18.0981 16.3886 17.9295C17.8347 15.3656 20.0349 14.072 22.9733 13.9762C24.0841 13.939 25.0884 14.3009 26.1104 14.6469C26.5913 14.8102 27.0224 14.7339 27.2939 14.214C27.5672 13.6906 27.2726 13.3765 26.9178 13.0873" fill="#F79320"/>
<path d="M45.7081 46.1226C45.7081 45.0295 44.8884 44.2346 43.7705 44.2346C42.6526 44.2346 41.7832 44.9799 41.7832 46.1226C41.7832 47.1659 42.5284 47.9874 43.6711 47.9874C44.7393 47.9874 45.7081 47.2919 45.7081 46.1226Z" fill="#F79320"/>
<path d="M39.5703 60.2609H43.2734L45.1862 49.4514H41.4831L39.5703 60.2609Z" fill="#F79320"/>
<path d="M53.7099 49.155C52.8653 49.155 51.5984 49.6022 50.752 50.3474L50.9011 49.4531H47.1979L45.2852 60.2626H48.9883L50.28 52.9078C50.9011 52.3613 51.5966 51.9887 52.3419 51.9887C53.0871 51.9887 53.8341 52.411 53.8341 53.3798C53.8341 53.6034 53.8093 53.8518 53.7596 54.1251L52.6666 60.2626H56.3697L57.4379 54.3486C57.5124 53.9512 57.5372 53.5785 57.5372 53.2059C57.5372 50.8708 56.0964 49.155 53.7117 49.155" fill="#F79320"/>
<path d="M65.6106 57.0066C65.0889 57.4786 64.3934 57.8264 63.5736 57.8264C62.6048 57.8264 61.7353 57.0314 61.7353 55.5658C61.7353 53.7009 62.9277 51.9869 64.766 51.9869C65.387 51.9869 66.0081 52.2105 66.4055 52.5582L65.6106 57.0066ZM68.2704 42.1213L66.8793 49.9233C66.134 49.4265 65.2149 49.1532 64.1219 49.1532C60.8162 49.1532 58.1582 52.0117 58.1582 55.6882C58.1582 58.4705 59.7977 60.5589 62.2339 60.5589C63.2524 60.5589 64.3206 60.1614 65.1652 59.5404L65.041 60.2608H68.7441L71.9735 42.1213H68.2704Z" fill="#F79320"/>
<path d="M75.3037 44.2346C74.2355 44.2346 73.3164 44.9799 73.3164 46.1226C73.3164 47.1659 74.0616 47.9874 75.2043 47.9874C76.2725 47.9874 77.2413 47.2919 77.2413 46.1226C77.2413 45.0295 76.4216 44.2346 75.3037 44.2346Z" fill="#F79320"/>
<path d="M71.1035 60.2609H74.8066L76.7194 49.4514H73.0163L71.1035 60.2609Z" fill="#F79320"/>
<path d="M85.1172 58.0002C84.1235 58.7952 82.8318 59.3186 81.737 59.3186C79.8242 59.3186 78.607 57.9523 78.607 55.9136C78.607 53.1065 80.5198 50.8193 83.3535 50.8193C84.4465 50.8193 85.5395 51.2665 86.1854 52.0366L85.1172 58.0002ZM86.4107 50.869C85.6406 50.0989 84.4731 49.627 83.2062 49.627C79.6769 49.627 77.168 52.4092 77.168 55.9881C77.168 58.6213 78.7827 60.4861 81.4176 60.4861C82.6845 60.4861 83.9283 60.0142 84.8972 59.2938L84.6487 60.7346C84.2016 63.169 82.736 64.6612 80.573 64.6612C79.7036 64.6612 78.6602 64.388 77.9132 63.4937L77.5654 64.7109C78.2858 65.3816 79.3043 65.8288 80.7203 65.8288C83.6036 65.8288 85.5413 63.9905 86.1126 60.66L88.0502 49.8257H86.5846L86.4107 50.869Z" fill="#F79320"/>
<path d="M93.9631 54.2226C92.8204 54.2226 91.6032 54.0487 90.6326 53.7754C91.3282 52.1111 92.7708 50.8193 94.9071 50.8193C96.4473 50.8193 97.6414 51.49 97.6414 52.4837C97.6414 53.527 96.2503 54.2226 93.9631 54.2226ZM94.9319 49.627C91.1046 49.627 88.7695 52.6576 88.7695 56.0875C88.7695 58.9194 90.4091 60.4844 93.1185 60.4844C94.5593 60.4844 96.3745 60.0372 97.865 58.8945L97.5669 57.9754C96.2006 58.8448 94.6835 59.3168 93.3173 59.3168C91.3051 59.3168 90.1624 58.2983 90.1624 56.1354C90.1624 55.6634 90.2369 55.1666 90.3363 54.6946C91.3796 55.0175 92.7708 55.2162 94.0643 55.2162C97.0204 55.2162 99.0095 54.1729 99.0095 52.4092C99.0095 50.7697 97.2954 49.627 94.9337 49.627" fill="#F79320"/>
<path d="M106.114 49.627C105.071 49.627 103.904 50.1238 102.711 51.0677L102.935 49.8257H101.469L99.6309 60.2626H101.072L102.512 52.2619C103.705 51.3676 104.723 50.8211 105.694 50.8211C107.035 50.8211 108.004 51.4918 108.004 53.1562C108.004 53.4791 107.954 53.8517 107.88 54.2492L106.812 60.2626H108.277L109.346 54.2244C109.42 53.8269 109.445 53.4543 109.445 53.0817C109.445 50.8956 108.128 49.627 106.114 49.627Z" fill="#F79320"/>
<path d="M110.711 60.2608H112.154L114.017 49.8257H112.576L110.711 60.2608Z" fill="#F79320"/>
<path d="M113.793 45.5513C113.147 45.5513 112.625 46.0978 112.625 46.7437C112.625 47.2902 113.047 47.7373 113.643 47.7373C114.24 47.7373 114.811 47.2405 114.811 46.5946C114.811 45.9984 114.389 45.5513 113.793 45.5513Z" fill="#F79320"/>
<path d="M123.308 49.8257L121.842 58.0002C121.023 58.7952 119.855 59.3186 118.909 59.3186C117.543 59.3186 116.624 58.5982 116.624 57.0829C116.624 56.7351 116.649 56.3376 116.748 55.8657L117.816 49.8275H116.351L115.282 55.8657C115.208 56.3128 115.158 56.7351 115.158 57.1326C115.158 59.2459 116.475 60.4879 118.489 60.4879C119.582 60.4879 120.675 60.0408 121.62 59.2707L121.447 60.2643H122.914L124.752 49.8275H123.311L123.308 49.8257Z" fill="#F79320"/>
<path d="M129.944 50.8194C130.589 50.8194 131.533 51.0181 132.154 51.3411L132.626 50.2463C131.906 49.8737 130.987 49.6252 129.968 49.6252C127.83 49.6252 126.265 50.7679 126.265 52.7322C126.265 54.173 127.284 54.8685 128.528 55.5162C129.447 55.9633 130.242 56.4353 130.242 57.429C130.242 58.5468 129.298 59.2921 127.882 59.2921C127.012 59.2921 125.795 58.9691 125.05 58.4723L124.479 59.5156C125.224 60.087 126.565 60.4596 127.882 60.4596C130.144 60.4596 131.659 59.2175 131.659 57.4023C131.659 55.8373 130.442 55.0903 129.397 54.5704C128.403 54.0736 127.658 53.6265 127.658 52.6328C127.658 51.5646 128.503 50.8194 129.945 50.8194" fill="#F79320"/>
<path d="M110.674 62.5764H111.245V63.8025H111.252C111.318 63.7138 111.403 63.6517 111.506 63.6144C111.609 63.5772 111.721 63.5594 111.84 63.5594C111.971 63.5594 112.09 63.586 112.194 63.641C112.299 63.696 112.386 63.7688 112.459 63.8593C112.532 63.9498 112.587 64.0545 112.626 64.1734C112.665 64.2905 112.684 64.4147 112.684 64.5442C112.684 64.6844 112.663 64.8121 112.62 64.9292C112.578 65.0464 112.516 65.1475 112.436 65.2327C112.356 65.3178 112.26 65.3835 112.148 65.4314C112.037 65.4775 111.912 65.5024 111.776 65.5024C111.71 65.5024 111.648 65.4935 111.589 65.4757C111.531 65.458 111.478 65.4349 111.428 65.4066C111.378 65.3782 111.336 65.348 111.298 65.3125C111.261 65.2788 111.231 65.2451 111.21 65.2114H111.203V65.4545H110.677V62.5764H110.674ZM111.199 64.53C111.199 64.6702 111.24 64.782 111.32 64.8689C111.4 64.9559 111.511 64.9984 111.657 64.9984C111.802 64.9984 111.914 64.9559 111.994 64.8689C112.074 64.782 112.115 64.6702 112.115 64.53C112.115 64.3898 112.074 64.278 111.994 64.1911C111.914 64.1042 111.802 64.0616 111.657 64.0616C111.511 64.0616 111.4 64.1042 111.32 64.1911C111.24 64.278 111.199 64.3898 111.199 64.53Z" fill="#231F20"/>
<path d="M114.085 65.756C114.047 65.8554 114.01 65.9423 113.975 66.0186C113.939 66.0949 113.895 66.1588 113.84 66.2103C113.785 66.2617 113.715 66.3025 113.632 66.3291C113.549 66.3557 113.439 66.3699 113.3 66.3699C113.153 66.3699 113.011 66.3469 112.874 66.3007L112.951 65.8323C113.038 65.8696 113.126 65.8891 113.217 65.8891C113.281 65.8891 113.332 65.882 113.373 65.8678C113.414 65.8536 113.448 65.8341 113.474 65.8075C113.501 65.7809 113.524 65.7489 113.542 65.7099C113.559 65.6708 113.579 65.6265 113.598 65.5768L113.641 65.4703L112.83 63.6055H113.446L113.921 64.828H113.928L114.337 63.6055H114.922L114.085 65.756Z" fill="#231F20"/>
<path d="M118.095 63.4601C118.036 63.3891 117.965 63.3341 117.88 63.2968C117.795 63.2578 117.697 63.2401 117.585 63.2401C117.474 63.2401 117.371 63.2614 117.275 63.3039C117.179 63.3465 117.097 63.4069 117.026 63.4849C116.955 63.563 116.902 63.6535 116.863 63.7617C116.824 63.87 116.805 63.9835 116.805 64.1077C116.805 64.2319 116.824 64.3508 116.863 64.4555C116.902 64.5602 116.957 64.6525 117.025 64.7288C117.094 64.8068 117.174 64.8672 117.266 64.9098C117.358 64.9523 117.458 64.9736 117.564 64.9736C117.686 64.9736 117.793 64.9488 117.887 64.8973C117.981 64.8459 118.059 64.7749 118.119 64.6844L118.614 65.0535C118.501 65.2132 118.355 65.3321 118.18 65.4066C118.004 65.4829 117.825 65.5201 117.639 65.5201C117.427 65.5201 117.234 65.4864 117.057 65.4208C116.879 65.3551 116.725 65.2611 116.595 65.1369C116.466 65.0144 116.365 64.8654 116.292 64.6897C116.219 64.5141 116.184 64.3189 116.184 64.1042C116.184 63.8895 116.219 63.6925 116.292 63.5186C116.365 63.343 116.466 63.1939 116.595 63.0715C116.725 62.9491 116.877 62.8532 117.057 62.7876C117.234 62.7219 117.427 62.6882 117.639 62.6882C117.715 62.6882 117.795 62.6953 117.876 62.7095C117.958 62.7237 118.04 62.745 118.119 62.777C118.199 62.8071 118.276 62.8479 118.35 62.8994C118.423 62.9508 118.49 63.0129 118.549 63.0857L118.093 63.4583L118.095 63.4601Z" fill="#231F20"/>
<path d="M118.939 62.7593H119.83C120.046 62.7593 120.251 62.7841 120.444 62.832C120.637 62.8799 120.808 62.958 120.951 63.0662C121.095 63.1745 121.21 63.3147 121.296 63.4868C121.381 63.6589 121.423 63.8683 121.423 64.1149C121.423 64.3332 121.383 64.5248 121.299 64.6916C121.216 64.8584 121.106 64.9968 120.966 65.1103C120.825 65.2239 120.664 65.3091 120.483 65.3676C120.3 65.4262 120.109 65.4546 119.908 65.4546H118.938V62.7593H118.939ZM119.534 64.9063H119.842C119.979 64.9063 120.107 64.8921 120.226 64.8637C120.345 64.8353 120.446 64.7892 120.533 64.7253C120.62 64.6614 120.687 64.5762 120.737 64.4698C120.786 64.3651 120.811 64.2356 120.811 64.083C120.811 63.9517 120.786 63.8363 120.737 63.7387C120.687 63.6411 120.621 63.5613 120.536 63.4974C120.453 63.4335 120.353 63.3856 120.242 63.3555C120.128 63.3235 120.009 63.3076 119.885 63.3076H119.535V64.9063H119.534Z" fill="#231F20"/>
<path d="M121.822 62.7593H122.417V65.4546H121.822V62.7593Z" fill="#231F20"/>
<path d="M123.844 62.7593H124.335L125.508 65.4546H124.837L124.605 64.8832H123.558L123.334 65.4546H122.68L123.844 62.7593ZM124.073 63.5436L123.744 64.3811H124.403L124.071 63.5436H124.073Z" fill="#231F20"/>
<path d="M125.801 62.7593H126.395V64.9063H127.495V65.4546H125.801V62.7593Z" fill="#231F20"/>
<path d="M127.76 65.1279C127.76 65.08 127.769 65.0338 127.786 64.9912C127.804 64.9487 127.829 64.9114 127.861 64.8795C127.893 64.8475 127.93 64.8227 127.973 64.8049C128.015 64.7872 128.061 64.7783 128.109 64.7783C128.157 64.7783 128.203 64.7872 128.246 64.8049C128.289 64.8227 128.326 64.8475 128.358 64.8795C128.39 64.9114 128.415 64.9487 128.432 64.9912C128.45 65.0338 128.459 65.08 128.459 65.1279C128.459 65.1758 128.45 65.2219 128.432 65.2645C128.415 65.3071 128.39 65.3443 128.358 65.3763C128.326 65.4082 128.289 65.4331 128.246 65.4508C128.203 65.4686 128.157 65.4774 128.109 65.4774C128.061 65.4774 128.015 65.4686 127.973 65.4508C127.93 65.4331 127.893 65.4082 127.861 65.3763C127.829 65.3443 127.804 65.3071 127.786 65.2645C127.769 65.2219 127.76 65.1758 127.76 65.1279Z" fill="#231F20"/>
<path d="M129.834 62.7593H130.325L131.498 65.4546H130.828L130.595 64.8832H129.548L129.325 65.4546H128.67L129.834 62.7593ZM130.063 63.5436L129.735 64.3811H130.393L130.061 63.5436H130.063Z" fill="#231F20"/>
<path d="M131.76 62.7593H132.354V65.4546H131.76V62.7593Z" fill="#231F20"/>
</svg>
