<svg width="600" height="271.186" viewBox="0 0 600 271.186" fill="none" xmlns="http://www.w3.org/2000/svg"><path d="M144.318 234.22c-8.916 -7.336 -19.41 -11.732 -30.194 -15.468 -7.922 -2.746 -15.946 -5.21 -23.728 -8.326 -5.63 -2.258 -5.956 -4.342 -1.542 -8.172 4.634 -4.024 5.272 -7.406 2.118 -11.83 -0.814 -1.138 -1.84 -2.132 -2.834 -3.128 -7.458 -7.556 -13.508 -16.146 -18.434 -25.512a112.8 112.8 0 0 1 -12.762 -44.112c-0.698 -8.732 -0.482 -17.37 0.99 -25.99 0.65 -3.8 1.342 -7.594 2.004 -11.35 -0.816 -0.272 -1.15 0.18 -1.526 0.462 -0.728 0.556 -1.464 1.092 -2.132 1.706 -10.562 9.742 -18.898 21.074 -24.746 34.24 -5.278 11.906 -7.938 24.386 -8.594 37.322 -0.302 5.972 0.18 11.922 0.972 17.854a98.6 98.6 0 0 0 10.57 32.996 100 100 0 0 0 24.552 30.386c10.128 8.458 21.444 14.76 33.976 18.784 13.6 4.37 27.542 5.684 41.776 4.272a101 101 0 0 0 22.068 -4.794c1.634 -0.55 1.804 -1.234 1.082 -2.712 -3.23 -6.63 -8.01 -12 -13.624 -16.62" fill="#F79320"/><path d="M217.272 117.668c-4.536 -10.926 -11.054 -20.59 -19.03 -29.234a96.2 96.2 0 0 0 -28.824 -21.37c-14.206 -6.928 -29.22 -10.738 -46.238 -10.39 -7.024 -0.474 -14.928 0.962 -22.824 2.57 -1.816 0.372 -2.84 1.24 -3.406 3.074 -3.2 10.318 -4.058 20.732 -1.936 31.39 2.128 10.664 6.736 20.122 13.906 28.224 7.268 8.22 13.57 11.884 25.932 6.922 10.566 -4.24 21.572 -4.576 32.21 0.224 9.884 4.462 19.152 3.938 28.384 -1.922a41.6 41.6 0 0 1 19.926 -6.464c2.872 -0.172 3.02 -0.36 1.916 -3.024" fill="#F79320"/><path d="M27.858 50.094c1.858 0.824 3.44 0.2 4.536 -1.794 5.932 -10.78 14.62 -18.596 25.99 -23.254 8.738 -3.584 17.82 -4.916 27.272 -3.288 4.118 0.712 8.054 1.912 11.966 3.316 2.488 0.888 4.352 -0.42 4.284 -3.512 -0.04 -0.908 -1.044 -1.746 -2.458 -2.336 -9.618 -4.006 -19.598 -4.718 -29.804 -3.446 -14.6 1.83 -26.556 8.556 -36.062 19.662 -2.634 3.084 -5.072 6.38 -6.728 10.126 -0.722 1.638 -1.072 3.614 0.996 4.536" fill="#F79320"/><path d="M97.61 35.484c0.546 -1.186 -0.02 -2.092 -0.722 -2.938 -0.658 -0.79 -1.614 -1.17 -2.532 -1.536 -5.21 -2.102 -10.678 -2.928 -16.63 -3.288 -2.082 0.21 -4.584 0.288 -7.016 0.726 -11.064 2 -20.448 7.006 -27.576 15.864 -2.02 2.508 -3.994 5.092 -5.274 8.102 -0.756 1.776 -0.786 3.424 1.22 4.454 1.84 0.946 3.176 0.21 4.2 -1.396 0.396 -0.63 0.83 -1.238 1.18 -1.898a33.6 33.6 0 0 1 10.014 -11.566c11.62 -8.474 24.288 -10.376 37.84 -5.094 0.872 0.338 1.728 0.508 2.662 0.492 1.35 -0.016 2.118 -0.762 2.644 -1.912" fill="#F79320"/><path d="M91.254 44.352a6.8 6.8 0 0 0 -1.946 -1.078c-3.62 -1.244 -7.294 -2.268 -11.05 -2.058 -6.228 -0.216 -11.816 1.552 -16.966 4.61a28.8 28.8 0 0 0 -11.98 13.596c-0.674 1.546 -0.638 3.146 0.8 4.014 1.532 0.918 3.234 0.6 4.428 -0.956 0.404 -0.526 0.692 -1.132 1.016 -1.702 4.902 -8.692 12.36 -13.078 22.318 -13.404 3.766 -0.126 7.17 1.102 10.634 2.272 1.63 0.556 3.092 0.298 4.014 -1.464 0.926 -1.772 -0.072 -2.84 -1.274 -3.82" fill="#F79320"/><path d="M154.942 156.35c0 -3.706 -2.78 -6.4 -6.566 -6.4 -3.79 0 -6.738 2.526 -6.738 6.4 0 3.536 2.526 6.318 6.4 6.318 3.62 0 6.906 -2.356 6.906 -6.318" fill="#F79320"/><path d="M134.136 204.272h12.552l6.484 -36.64H140.62z" fill="#F79320"/><path d="M182.068 166.628c-2.864 0 -7.16 1.516 -10.028 4.04l0.508 -3.03h-12.556l-6.484 36.644h12.552l4.38 -24.932c2.106 -1.854 4.464 -3.118 6.99 -3.118s5.058 1.434 5.058 4.718q0 1.136 -0.25 2.526l-3.706 20.806h12.552l3.62 -20.048c0.25 -1.35 0.338 -2.61 0.338 -3.874 0 -7.916 -4.888 -13.732 -12.97 -13.732" fill="#F79320"/><path d="M222.406 193.244c-1.766 1.6 -4.126 2.78 -6.902 2.78 -3.288 0 -6.234 -2.698 -6.234 -7.664 0 -6.322 4.044 -12.136 10.274 -12.136 2.106 0 4.21 0.762 5.56 1.938zm9.016 -50.462 -4.712 26.448c-2.528 -1.684 -5.644 -2.61 -9.35 -2.61 -11.206 0 -20.216 9.692 -20.216 22.152 0 9.43 5.56 16.508 13.816 16.508 3.45 0 7.074 -1.346 9.936 -3.45l-0.42 2.44h12.552l10.95 -61.488z" fill="#F79320"/><path d="M255.268 149.95c-3.624 0 -6.738 2.526 -6.738 6.4 0 3.536 2.528 6.318 6.4 6.318 3.624 0 6.906 -2.356 6.906 -6.318 0 -3.706 -2.78 -6.4 -6.566 -6.4" fill="#F79320"/><path d="M241.03 204.272h12.552l6.482 -36.64h-12.552z" fill="#F79320"/><path d="M288.532 196.61c-3.366 2.694 -7.746 4.472 -11.458 4.472 -6.484 0 -10.61 -4.634 -10.61 -11.542 0 -9.518 6.484 -17.272 16.088 -17.272 3.708 0 7.414 1.516 9.6 4.128zm4.386 -24.172c-2.61 -2.61 -6.57 -4.21 -10.864 -4.21 -11.966 0 -20.468 9.43 -20.468 21.562 0 8.926 5.474 15.248 14.406 15.248 4.292 0 8.508 -1.6 11.796 -4.04l-0.848 4.882c-1.512 8.254 -6.482 13.312 -13.814 13.312 -2.95 0 -6.484 -0.926 -9.016 -3.956l-1.18 4.126c2.44 2.272 5.898 3.79 10.694 3.79 9.776 0 16.342 -6.23 18.282 -17.522l6.566 -36.726h-4.966z" fill="#F79320"/><path d="M318.518 183.806c-3.874 0 -8 -0.59 -11.288 -1.518 2.356 -5.64 7.248 -10.02 14.488 -10.02 5.22 0 9.268 2.274 9.268 5.644 0 3.536 -4.712 5.894 -12.468 5.894m3.284 -15.58c-12.972 0 -20.892 10.272 -20.892 21.898 0 9.6 5.56 14.906 14.746 14.906 4.882 0 11.034 -1.516 16.088 -5.39l-1.01 -3.116c-4.63 2.95 -9.772 4.55 -14.406 4.55 -6.82 0 -10.694 -3.454 -10.694 -10.786 0 -1.6 0.254 -3.282 0.59 -4.882 3.538 1.092 8.254 1.766 12.638 1.766 10.02 0 16.766 -3.536 16.766 -9.516 0 -5.56 -5.814 -9.43 -13.816 -9.43" fill="#F79320"/><path d="M359.708 168.228c-3.536 0 -7.492 1.684 -11.536 4.882l0.76 -4.206h-4.97l-6.23 35.38h4.884l4.882 -27.122c4.044 -3.03 7.494 -4.882 10.786 -4.882 4.546 0 7.83 2.272 7.83 7.912 0 1.094 -0.17 2.36 -0.42 3.706l-3.62 20.386h4.966l3.624 -20.472a20.8 20.8 0 0 0 0.336 -3.872c0 -7.41 -4.464 -11.712 -11.292 -11.712" fill="#F79320"/><path d="M375.292 204.272h4.892l6.316 -35.37h-4.884z" fill="#F79320"/><path d="M385.738 154.41c-2.19 0 -3.96 1.854 -3.96 4.044 0 1.85 1.43 3.366 3.45 3.366s3.96 -1.684 3.96 -3.872c0 -2.024 -1.43 -3.538 -3.45 -3.538" fill="#F79320"/><path d="m417.994 168.902 -4.97 27.708c-2.776 2.694 -6.736 4.472 -9.942 4.472 -4.63 0 -7.746 -2.44 -7.746 -7.58 0 -1.18 0.084 -2.526 0.42 -4.126l3.62 -20.468h-4.966l-3.624 20.468c-0.25 1.516 -0.42 2.95 -0.42 4.294 0 7.162 4.464 11.372 11.292 11.372 3.706 0 7.41 -1.516 10.614 -4.126l-0.586 3.366h4.972l6.23 -35.38h-4.884z" fill="#F79320"/><path d="M440.488 172.272c2.186 0 5.386 0.672 7.492 1.766l1.6 -3.712a19.6 19.6 0 0 0 -9.01 -2.102c-7.248 0 -12.552 3.872 -12.552 10.528 0 4.884 3.454 7.24 7.672 9.438 3.116 1.516 5.81 3.118 5.81 6.484 0 3.79 -3.2 6.316 -8 6.316 -2.95 0 -7.074 -1.094 -9.6 -2.78l-1.936 3.538c2.526 1.936 7.072 3.2 11.536 3.2 7.668 0 12.804 -4.21 12.804 -10.366 0 -5.306 -4.126 -7.838 -7.668 -9.6 -3.37 -1.682 -5.894 -3.2 -5.894 -6.566 0 -3.62 2.864 -6.15 7.752 -6.15" fill="#F79320"/><path d="M375.166 212.122h1.936v4.16h0.024a1.8 1.8 0 0 1 0.862 -0.64 3.4 3.4 0 0 1 1.132 -0.186q0.668 0 1.2 0.278a2.72 2.72 0 0 1 0.898 0.738 3.4 3.4 0 0 1 0.566 1.064q0.196 0.6 0.196 1.258 0 0.712 -0.216 1.306a2.86 2.86 0 0 1 -1.6 1.702 3.4 3.4 0 0 1 -1.262 0.24 2 2 0 0 1 -0.634 -0.088 2.8 2.8 0 0 1 -0.986 -0.552 1.8 1.8 0 0 1 -0.298 -0.346h-0.024v0.824h-1.784v-9.756zm1.78 6.624q0 0.712 0.41 1.15 0.404 0.44 1.142 0.44t1.142 -0.44a1.62 1.62 0 0 0 0.41 -1.15 1.62 1.62 0 0 0 -0.41 -1.15 1.46 1.46 0 0 0 -1.142 -0.44q-0.738 0 -1.142 0.44a1.62 1.62 0 0 0 -0.41 1.15" fill="#231F20"/><path d="M386.728 222.902q-0.194 0.506 -0.372 0.892a1.86 1.86 0 0 1 -1.162 1.05q-0.42 0.136 -1.126 0.136 -0.746 0 -1.444 -0.23l0.262 -1.59a2.4 2.4 0 0 0 0.902 0.194 1.8 1.8 0 0 0 0.528 -0.072 0.88 0.88 0 0 0 0.342 -0.204 1 1 0 0 0 0.23 -0.332l0.19 -0.45 0.146 -0.362 -2.75 -6.318h2.088l1.61 4.142h0.024l1.386 -4.146h1.984z" fill="#231F20"/><path d="M400.322 215.118a2 2 0 0 0 -0.728 -0.552 2.4 2.4 0 0 0 -1 -0.194 2.5 2.5 0 0 0 -1.894 0.83 2.8 2.8 0 0 0 -0.552 0.938 3.4 3.4 0 0 0 -0.196 1.172c0 0.42 0.064 0.824 0.196 1.176a3 3 0 0 0 0.55 0.928 2.4 2.4 0 0 0 1.828 0.83 2.2 2.2 0 0 0 1.882 -0.984l1.678 1.254q-0.576 0.814 -1.472 1.196a4.4 4.4 0 0 1 -1.834 0.384q-1.074 0 -1.972 -0.338a4.38 4.38 0 0 1 -2.594 -2.478 5 5 0 0 1 -0.366 -1.984q0 -1.094 0.366 -1.984a4.4 4.4 0 0 1 2.594 -2.478 5.6 5.6 0 0 1 2.776 -0.264 4 4 0 0 1 1.606 0.644q0.372 0.258 0.674 0.63l-1.546 1.262z" fill="#231F20"/><path d="M403.184 212.746h3.02q1.098 0 2.082 0.244 0.986 0.244 1.718 0.794t1.17 1.424q0.43 0.878 0.43 2.132 0.004 1.108 -0.42 1.956a4 4 0 0 1 -1.128 1.416 5 5 0 0 1 -1.638 0.874 6.4 6.4 0 0 1 -1.95 0.294h-3.288zm2.016 7.274h1.044q0.698 0 1.302 -0.142a2.8 2.8 0 0 0 1.04 -0.472 2.2 2.2 0 0 0 0.692 -0.864 3 3 0 0 0 0.25 -1.312 2.32 2.32 0 0 0 -0.932 -1.986 2.8 2.8 0 0 0 -0.996 -0.482 4.4 4.4 0 0 0 -1.21 -0.16h-1.186z" fill="#231F20"/><path d="M412.956 212.746h2.016v9.136h-2.016z" fill="#231F20"/><path d="M419.81 212.746h1.664l3.976 9.136h-2.274l-0.786 -1.938h-3.55l-0.76 1.938h-2.216zm0.776 2.658 -1.116 2.838h2.234l-1.126 -2.838z" fill="#231F20"/><path d="M426.444 212.746h2.014v7.274h3.728v1.862h-5.742z" fill="#231F20"/><path d="M433.084 220.772q0 -0.244 0.088 -0.464a1.18 1.18 0 0 1 1.094 -0.722 1.2 1.2 0 0 1 0.844 0.342 1.18 1.18 0 0 1 0.25 1.306 1.12 1.12 0 0 1 -0.63 0.634 1.206 1.206 0 0 1 -1.56 -0.63 1.4 1.4 0 0 1 -0.088 -0.464" fill="#231F20"/><path d="M440.116 212.746h1.664l3.976 9.136h-2.272l-0.79 -1.938h-3.55l-0.756 1.938h-2.22zm0.776 2.658 -1.112 2.838h2.23l-1.126 -2.838z" fill="#231F20"/><path d="M446.644 212.746h2.014v9.136h-2.014z" fill="#231F20"/></svg>